<svg width="32" height="32" viewBox="0 0 32 32" fill="none" xmlns="http://www.w3.org/2000/svg">
<rect width="32" height="32" stroke="white"/>
<path d="M12.6332 21.5746C12.8848 20.6358 13.8498 20.0786 14.7887 20.3302C15.7276 20.5818 16.2848 21.5468 16.0332 22.4856L14.7011 27.4572C14.5595 27.9853 14.0167 28.2987 13.4886 28.1572L12.0011 27.7586C11.473 27.6171 11.1596 27.0743 11.3011 26.5462L12.6332 21.5746Z" fill="#1A1A1A"/>
<path d="M19.0926 19.0235C19.7799 18.3362 20.8944 18.3362 21.5817 19.0235L25.3319 22.7737C25.7186 23.1604 25.7186 23.7873 25.3319 24.1738L24.243 25.2627C23.8564 25.6494 23.2296 25.6494 22.8429 25.2627L19.0926 21.5125C18.4053 20.8252 18.4053 19.7109 19.0926 19.0235Z" fill="#1A1A1A"/>
<path d="M9.81511 15.734C10.754 15.4824 11.719 16.0397 11.9706 16.9785C12.2222 17.9174 11.665 18.8825 10.7262 19.1341L5.43413 20.5521C4.90599 20.6936 4.36313 20.3802 4.22162 19.8521L3.82304 18.3645C3.68153 17.8364 3.99494 17.2936 4.52307 17.1521L9.81511 15.734Z" fill="#1A1A1A"/>
<path d="M20.5796 1.69428C21.1077 1.8358 21.4211 2.37865 21.2796 2.90678L17.666 16.3927C17.4145 17.3316 16.4494 17.8887 15.5105 17.6373C14.5716 17.3857 14.0145 16.4206 14.2659 15.4817L17.8794 1.99574C18.021 1.46761 18.5638 1.15419 19.092 1.2957L20.5796 1.69428Z" fill="#1A1A1A"/>
<path d="M28.3225 13.3944C28.464 13.9225 28.1506 14.4653 27.6225 14.6069L22.3985 16.0065C21.4596 16.2581 20.4946 15.7009 20.243 14.7621C19.9915 13.8231 20.5486 12.8581 21.4875 12.6065L26.7115 11.2068C27.2396 11.0653 27.7824 11.3787 27.9239 11.9068L28.3225 13.3944Z" fill="#1A1A1A"/>
<path d="M12.9709 10.4127C13.6583 11.1 13.6583 12.2143 12.9709 12.9017C12.2836 13.5889 11.1693 13.5889 10.482 12.9017L4.28264 6.70227C3.89602 6.31566 3.89602 5.68882 4.28264 5.3022L5.37153 4.2133C5.75816 3.82669 6.38498 3.82669 6.77161 4.2133L12.9709 10.4127Z" fill="#1A1A1A"/>
</svg>
